<?xml version="1.0" encoding="UTF-8"?>
<svg id="Layer_1" data-name="Layer 1" xmlns="http://www.w3.org/2000/svg" viewBox="0 0 3840 778.88">
  <defs>
    <style>
      .cls-1 {
        fill: #fff;
      }
    </style>
  </defs>
  <path class="cls-1" d="m264.06,342.24c1.91,71.18,3.81,142.37,5.76,215.08h-121.31V116.23h155.58c29.69,89.73,59.95,181.19,91.28,275.88,26.53-79.98,51.91-156.63,77.42-233.24,4.81-14.44,6.18-34.29,16.34-41.48,10.39-7.35,29.62-2.41,44.98-2.47,35.82-.14,71.63-.04,108.43-.04v442.87h-116.65v-213.17c-18.63,56.61-35.91,109.55-53.52,162.38-5.7,17.11-7.67,40.08-19.76,49.1-11.49,8.57-33.97,2.52-51.62,2.71-14.83.16-29.8-1.23-44.45.4-14.54,1.62-19.63-4.97-23.66-17.39-21.61-66.62-43.91-133.02-65.98-199.5-.95-.01-1.9-.03-2.84-.04Z"/>
  <path class="cls-1" d="m2366.42,561.1c-.48,1.52-1.27,2.66-1.07,3.59,6.96,32.71-10.05,48.9-38.14,60.97-24.85,10.68-47.79,25.77-73.32,39.87V225.58c1.88-.35,4-1.11,6.11-1.08,63.18,1.01,126.47.17,189.52,3.66,78.53,4.35,126.32,68.75,134.22,133.67,5.21,42.8,1.4,84.67-19.89,123.89-23.15,42.64-60.12,63.99-106.31,69.92-29.73,3.81-59.96,3.74-91.12,5.47Zm-.62-100.75c15,0,28.67,1.02,42.15-.19,40.02-3.62,55.25-15.06,59.17-47.81,2.06-17.16-1.06-34.97-2.06-52.47-1.08-18.81-13.63-29.71-29.74-32.58-22.48-4-45.72-3.78-69.52-5.43v138.48Z"/>
  <path class="cls-1" d="m1515.52,387.82c51.66,56.66,102.18,112.07,155.9,170.98-42,0-79.43-1.93-116.55.63-27.87,1.93-46.68-6.17-63.11-29.12-20.71-28.93-45.21-55.14-70.88-85.88v113.29h-111.95V116.1h111.56v224.71c29.39-33.01,56.47-61.25,80.85-91.65,14.85-18.51,30.48-26.83,54.76-25.35,36.88,2.25,73.99.59,115.74.59-53.49,55.92-104.38,109.11-156.34,163.43Z"/>
  <path class="cls-1" d="m886.83,340.57c-8.78-17.96-24.64-16.86-38.57-17.03-53.52-.65-107.05-.26-161.91-.26v-98.09c5.48-.26,10.99-.76,16.51-.76,55.87-.06,111.8-1.43,167.59.62,23.79.88,47.86,7.21,70.84,14.19,34.96,10.63,43.1,42.13,47.15,72.67,6.61,49.95,10.87,100.29,14.14,150.59,2.02,31.09.37,62.42.37,95.47-3.9.22-9.37.79-14.84.79-68.41.06-136.83.4-205.24-.14-27.93-.22-55.17-4-78.9-21.49-51.75-38.15-55.04-131.59-2.26-168.02,19.61-13.53,47.36-17.55,72.08-20.85,36.54-4.88,73.69-5.25,113.05-7.69Zm2.5,123.33v-27.55c-31.64,0-62.31-.59-92.92.64-4.54.18-11.2,8.48-12.21,13.89-.65,3.53,7.02,12.29,11.18,12.43,31.13,1.07,62.32.58,93.95.58Z"/>
  <path class="cls-1" d="m2975.14,343.89c-11.4-24.4-32.13-19.05-47.87-19.93-45.5-2.55-91.17-1.94-136.77-2.55-5.08-.07-10.16,0-18.82,0,12.97-21.44,26.46-39.61,35.58-59.75,13.68-30.21,33.45-42.25,67.45-38.08,36.01,4.42,72.77,2.45,109.14,4.37,51.97,2.75,79.27,27.04,89.84,77.87,17.26,83.03,17.21,167.16,17.44,252.6-5.9.38-10.84.98-15.78.98-71.87.06-143.73.36-215.6-.14-25.31-.18-48.96-6.9-70.11-21.97-48.19-34.33-51.18-127.12-7.93-162.11,11.79-9.54,27.14-18.14,41.78-20.05,43.31-5.65,87.08-7.81,130.69-11.17,6.09-.47,12.24-.06,20.98-.06Zm1.39,92.41c-30.88,0-59.76-.11-88.65.13-3.81.03-8.7.67-11.14,3.03-3.62,3.51-7.93,9.09-7.44,13.26.48,4.08,6.52,10.61,10.26,10.71,32.06.85,64.16.49,96.96.49v-27.63Z"/>
  <path class="cls-1" d="m1946.81,319.85c-39.57,0-78.2-.29-116.82.17-12.39.15-25.19.77-36.99,4.07-7.92,2.22-14.41,9.53-21.54,14.56.85,1.71,1.71,3.42,2.56,5.13h172.75v95.39h-172.51c-.91,1.95-1.81,3.9-2.72,5.85,6.02,4.13,11.83,11.46,18.08,11.85,36.85,2.33,73.79,3.2,110.72,4.24,15.22.43,30.47.07,46.61.07v96.21c-49.23,0-97.48.63-145.71-.35-16.16-.33-32.71-3.13-48.28-7.6-53.74-15.45-86.59-51.34-99.85-105.62-10.09-41.35-8.98-82.38,4.45-122.56,13.42-40.16,38.96-67.4,82.31-77.72,67.88-16.16,136.64-18.3,206.93-19.43v95.73Z"/>
  <path class="cls-1" d="m3689.28,562.61c-62.61-3.39-125.84-2.46-187.65-11.39-62.29-9-108.94-71.33-109.18-134.8-.1-27.08-.07-54.8,5.32-81.11,11.74-57.31,50.24-89.01,107.23-95.97,61.2-7.48,122.76-11.99,184.16-17.8.78,1.71,1.55,3.42,2.33,5.13-19.03,29.98-37.83,60.12-57.47,89.69-1.95,2.93-9.05,3.1-13.83,3.37-25,1.39-50.05,2-75.03,3.72-12.44.86-24.83,3.42-28.15,20.92h113.87v96.91h-115.99c6.46,13.73,13.88,19.66,27.18,19.52,26.19-.27,52.41.57,78.59,1.57,5.15.2,12.62,1.66,14.91,5.2,19,29.39,37.03,59.41,55.35,89.24-.55,1.93-1.09,3.87-1.64,5.8Z"/>
  <path class="cls-1" d="m2029.79,224.92v-107.77h113.54v106.61h83.45v95.5h-83.12c0,10.73-.12,20.09.02,29.45.42,28.5.42,57.02,1.58,85.48.85,20.75,9.66,28.52,30.96,29.78,16.46.98,32.93,1.88,50.66,2.88v92.43c-43.98-1.75-88.84,6.23-132.6-7.5-40.1-12.58-50.28-45.9-53.83-82.53-4.75-49.07-8.69-98.22-13.11-148.84h-50.68v-95.49h53.14Z"/>
  <path class="cls-1" d="m3413.95,562.45c-59.39-3.22-119.19-3.23-178.06-10.6-56.01-7.02-90.65-45.13-107.55-97.48-23.21-71.91-8.79-136.71,42.83-192.43,22.4-24.17,53.15-31.31,83.52-32.74,53.16-2.49,106.53-.69,160.27-.69-19.16,29.39-39.04,60.26-59.54,90.72-1.94,2.88-7.69,4.19-11.78,4.45-21.03,1.33-42.1,2.39-63.16,2.96-19.25.52-32.99,9.37-39.06,27.28-8.39,24.75-9.08,50.5-.87,75.26,5.8,17.48,19.54,27.6,38.88,27.9,22.24.34,44.5-.03,66.7,1.02,5.08.24,11.94,3.8,14.57,7.98,18.73,29.74,36.58,60.03,54.72,90.14-.49,2.08-.98,4.16-1.47,6.23Z"/>
  <path class="cls-1" d="m1282.44,383.56h-110.57c0-15.68-.82-30.9.2-45.98,1.38-20.33.83-21.53-20.27-21.09-2.21.05-4.42.41-8.2.78v240.14h-112.29V224.39c36.27,0,71.98-.38,107.68.13,23.82.35,47.82.36,71.38,3.38,42.22,5.4,56.42,18.9,62.76,60.5,4.74,31.06,6.25,62.61,9.31,95.15Z"/>
  <path class="cls-1" d="m2727.48,558.57h-115.32V117.48c31.17,17.35,60.45,35.68,91.52,50.2,19.64,9.18,24.49,21.14,24.29,41.69-1.04,109.44-.49,218.89-.49,328.34v20.86Z"/>
</svg>